<?xml version="1.0" standalone="no"?><!DOCTYPE svg PUBLIC "-//W3C//DTD SVG 1.1//EN" "http://www.w3.org/Graphics/SVG/1.1/DTD/svg11.dtd"><svg t="1591069222331" class="icon" viewBox="0 0 1024 1024" version="1.1" xmlns="http://www.w3.org/2000/svg" p-id="975" xmlns:xlink="http://www.w3.org/1999/xlink" width="200" height="200"><defs><style type="text/css"></style></defs><path d="M283.1 259.7s79.3-1.9 32.9 93.7l-32.9-93.7zM770 247.5s-127.7-2.2-53 110.3l53-110.3z" fill="#AA919F" p-id="976"></path><path d="M765.3 669.8c14.7 24 26.8 49.6 36.1 76.4l16 104.6c0 40.9-118 99.1-288.5 99.1s-288.5-58.2-288.5-99.1l16-104.6c19.7-57.1 52.3-108.6 95.2-150.5l34-33.2c16-15.6 20.4-39.8 11-60.2l-111.8-242c0-39.3 74.8-72.4 177.1-82.7l133.7-0.1c102.6 10.2 177.8 43.4 177.8 82.8v3.8L661.2 502.2c-9.4 20.4-5 44.7 11 60.3l34 33.2c22.7 22.2 42.5 47.1 59.1 74.1" fill="#F3D1C6" p-id="977"></path><path d="M523.2 92.1c-32.8 0-59.4 7.6-59.4 16.9v52.1c0 9.3 26.6 16.9 59.4 16.9s59.4-7.6 59.4-16.9V109c-0.1-9.3-26.6-16.9-59.4-16.9z" fill="#EDB5A6" p-id="978"></path><path d="M513.5 122.7c-35.9 0-77.8-8-77.8-30.6H456c2.3 2.4 22.7 10.2 57.5 10.2s55.1-7.8 57.8-11.8l19.9 1.6c0.1 22.6-41.8 30.6-77.7 30.6z" fill="" p-id="979"></path><path d="M513.6 188.1c-36.5 0-79.1-8-79.1-30.6v-63c0-22.6 42.6-30.6 79.1-30.6s79.1 8 79.1 30.6v63c0 22.7-42.6 30.6-79.1 30.6z m0-103.8c-35.6 0-56.4 7.9-59.2 11.9l0.4 61.4c2.4 2.4 23.2 10.2 58.8 10.2s56.4-7.9 59.2-11.9l-0.4-61.4c-2.4-2.3-23.2-10.2-58.8-10.2zM520.6 230.7c-30 0-179.7-1.9-179.7-40.5h20.3c0-1.1-0.4-1.8-0.5-2 5.5 7.5 59.7 22.2 159.9 22.2s154.4-14.7 159.9-22.2c-0.1 0.2-0.5 0.9-0.5 2h20.3c0 38.5-149.7 40.5-179.7 40.5zM512.1 712.8c-9.1 0-18.1-0.1-27-0.3l0.4-15.2c8.7 0.2 17.6 0.3 26.6 0.3l13.7-0.1 0.2 15.2-13.9 0.1z m54.8-1.3l-0.7-15.2c13.9-0.6 27.3-1.5 40.3-2.7l1.3 15.2c-13.2 1.1-26.9 2-40.9 2.7z m-122.7-0.7c-14.1-0.8-27.8-1.9-40.8-3.3l1.5-15.2c12.8 1.3 26.3 2.4 40.2 3.2l-0.9 15.3z m204.2-6.5l-2-15.1c14.2-1.9 27.5-4 39.7-6.4l2.9 15c-12.4 2.4-26 4.6-40.6 6.5z m-285.7-1.8c-14.7-2.2-28.3-4.7-40.5-7.4l3.3-14.9c11.9 2.7 25.1 5.1 39.4 7.2l-2.2 15.1zM729.3 688l-4.5-14.6c21.7-6.7 30.4-12.6 33.6-15.6l10.3 11.2c-7.4 6.8-20.7 13.2-39.4 19z m-447.2-4.4c-11-4.1-19.4-8.6-25-13.2l9.7-11.7c3 2.4 8.9 6.3 20.7 10.7l-5.4 14.2zM512.1 562.9c-10.2 0-20.1-0.2-29.6-0.7l0.7-15.2c9.3 0.4 19 0.7 28.9 0.7l11.2-0.1 0.2 15.2-11.4 0.1z m32-0.8l-0.8-15.2c14-0.7 27.4-1.8 39.9-3.4l1.9 15.1c-12.9 1.6-26.7 2.8-41 3.5z m-82.2-1.2c-14.7-1.2-28.4-2.9-41-5l2.5-15c12.1 2.1 25.5 3.7 39.7 4.8l-1.2 15.2z m143.7-5.4l-2.7-15c16.2-2.9 29-6.4 37.3-10.2l6.3 13.8c-9.3 4.4-23.4 8.3-40.9 11.4z m-205.2-3.8c-7.6-1.9-14.2-3.9-19.6-6.1l5.7-14.1c4.7 1.9 10.6 3.7 17.5 5.4l-3.6 14.8zM498.9 851.4c-13.9-0.2-27.6-0.8-41-1.7l1-15.2c13.2 0.9 26.6 1.4 40.2 1.6l-0.2 15.3z m41-0.3l-0.5-15.2c13.7-0.5 27.1-1.2 40.2-2.3l1.3 15.2c-13.4 1-27.1 1.8-41 2.3z m-122.8-5c-14-1.6-27.5-3.5-40.6-5.7l2.5-15c12.9 2.2 26.2 4.1 39.9 5.7l-1.8 15z m204.5-1.8l-2-15.1c13.7-1.8 26.9-4 39.7-6.4l2.8 15c-13 2.4-26.5 4.6-40.5 6.5z m-285.4-12c-13.8-3.1-27.2-6.6-39.8-10.4l4.4-14.6c12.3 3.7 25.4 7.1 38.8 10.2l-3.4 14.8z m366-3.4l-3.7-14.8c13.4-3.4 26.4-7.1 38.5-11.1l4.8 14.5c-12.5 4.1-25.8 8-39.6 11.4z m-444.9-20.4c-14.2-5.7-26.9-11.6-37.7-17.8l7.6-13.2c10.1 5.8 22.1 11.5 35.7 16.9l-5.6 14.1z m523.2-5.8l-6.2-13.9c13.6-6.1 25.2-12.4 34.4-18.7l8.6 12.5c-9.9 6.9-22.3 13.7-36.8 20.1z" fill="" p-id="980"></path><path d="M753.7 670c-17.1-26.8-37.6-51.6-60.9-73.5l-36-33.8c-20.2-19-25.7-48.4-13.8-73.2l118.6-242.6 1.2 0.6h18.1v6.2L661.3 498.4c-8.1 16.7-4.3 36.6 9.4 49.5l36 33.8c24.6 23.1 46.1 49.1 64.2 77.4L753.7 670z" fill="" p-id="981"></path><path d="M512.1 960c-180.5 0-315.4-58.6-315.4-111.1l17-108.2c21.8-61.2 57.5-115.5 103.8-159.1l36-33.8c13.7-12.9 17.5-32.8 9.4-49.5L243.5 247.5c0-45.7 77.2-82.8 196.6-94.4l1.9 20.2c-112.8 11-175 44.9-178 72.1l117.2 244.1c11.9 24.8 6.3 54.2-13.8 73.1l-36 33.8c-44 41.3-77.9 93-98.1 149.3l-16.4 104.7c0.1 29.6 115 89.2 295.2 89.2s295.1-59.6 295.1-90.7l-16.8-105c-9-24.6-21.5-50.1-36.7-73.9l17.1-10.9c16 25.1 29.2 52 39.2 79.8l17.4 108.4c0.1 54.1-134.8 112.7-315.3 112.7zM780.9 247.5h-20.3c0-27.7-62.7-63.1-179-74.2l1.9-20.2c119.9 11.4 197.4 48.5 197.4 94.4z" fill="" p-id="982"></path><path d="M520.4 423.9h-15.2l-0.4-7.6c0-2 0.1-4 0.2-5.9-3.4-49.6-49.2-67.3-88.7-67.3-37.7 0-71.4 23.3-83.9 58.1L318 396c14.7-40.8 54.1-68.2 98.2-68.2 46.4 0 81.5 19.7 96.3 51.7 14.9-32 49.9-51.7 96.4-51.7 45.8 0 85.7 28.8 99.4 71.6l-14.5 4.6c-11.6-36.5-45.7-61-84.9-61-39.5 0-85.3 17.8-88.7 67.3 0.1 2 0.2 3.9 0.2 5.9v7.7zM422 954.6c-5.1-6.4-9.9-13.1-14.3-20l12.9-8.2c4.1 6.4 8.6 12.7 13.3 18.7l-11.9 9.5z m-33.8-57c-5.3-12.3-9.9-25.6-13.7-39.3l14.7-4.1c3.6 13.1 8 25.7 13 37.4l-14 6z m-22.4-79.8c-2.1-13-3.7-26.8-4.6-41l15.2-1c0.9 13.8 2.4 27.1 4.5 39.7l-15.1 2.3z m9.4-82.1l-15.2-0.1c0.1-13.4 0.7-27.2 1.7-41.1l15.2 1.1c-1.1 13.5-1.6 27.1-1.7 40.1z m5.6-80.1l-15.1-2c1.9-14.4 4-28 6.3-40.5l15 2.7c-2.2 12.3-4.3 25.6-6.2 39.8z m14.4-79.3l-14.8-3.5c5.7-24.6 10.4-39.3 10.6-39.9l14.5 4.6c-0.1 0.2-4.8 14.9-10.3 38.8zM604.3 954.6l-11.9-9.5c4.8-6 9.2-12.3 13.3-18.7l12.9 8.2c-4.4 6.9-9.2 13.6-14.3 20z m33.8-57l-14-6c5-11.7 9.4-24.3 13-37.4l14.7 4.1c-3.8 13.8-8.5 27-13.7 39.3z m22.4-79.8l-15-2.4c2-12.6 3.5-25.9 4.5-39.7l15.2 1c-1 14.3-2.6 28.1-4.7 41.1z m-9.4-82.1c-0.1-13-0.7-26.5-1.6-40.1l15.2-1.1c1 13.9 1.6 27.8 1.7 41.1l-15.3 0.1z m-5.7-80.1c-1.8-14.2-4-27.5-6.2-39.8l15-2.7c2.3 12.5 4.4 26.1 6.3 40.5l-15.1 2z m-14.3-79.3c-5.6-23.9-10.2-38.6-10.3-38.8l14.5-4.6c0.2 0.6 4.9 15.4 10.6 39.9l-14.8 3.5zM306.7 368h-0.7c-3.7-0.3-6.9-2.4-8.5-5.7l-53-110.3c-1.5-3.1-1.3-6.8 0.5-9.7s5-4.8 8.5-4.8c2.8 0.2 61-0.6 80.6 35.2 12.4 22.7 6 53.3-19 90.9-1.9 2.7-5.1 4.4-8.4 4.4z m-36.3-109.2l37.3 77.6c10-18.5 16.7-39.3 8.6-54.2-8.1-14.7-29.4-21-45.9-23.4zM716.6 368c-3.4 0-6.6-1.7-8.5-4.5-25-37.7-31.4-68.2-19-90.9 19.6-35.8 77.9-35.1 80.6-35.2 3.5 0.1 6.6 1.9 8.5 4.8 1.8 3 2 6.6 0.5 9.7l-53 110.3c-1.6 3.3-4.8 5.5-8.5 5.7-0.1 0.1-0.3 0.1-0.6 0.1z m36.3-109.2c-16.5 2.3-37.8 8.7-45.9 23.4-8.1 14.9-1.3 35.7 8.6 54.2l37.3-77.6z" fill="" p-id="983"></path><path d="M321 381.9l-10.8-10.8c4.3-4.3 8.2-8.6 11.8-13l11.8 9.6c-3.8 4.9-8.1 9.6-12.8 14.2z m25.3-31.4l-12.9-8.1c6.9-11 12.3-22.8 16.1-35l14.6 4.5c-4.2 13.5-10.2 26.5-17.8 38.6z m22.8-59.2l-15-2.6c1.6-9.4 2.5-19.1 2.5-28.9 0-3.4-0.1-6.7-0.3-9.9l15.2-0.8c0.2 3.5 0.3 7 0.3 10.7 0 10.6-0.9 21.2-2.7 31.5z m-14.9-60.8c-3.6-22.3-10.1-37.1-10.1-37.3L358 187c0.3 0.7 7.3 16.6 11.2 41l-15 2.5z" fill="" p-id="984"></path><path d="M708.4 372l-3.6-4.3 11.8-9.6 3.3 3.9-11.5 10z m-15.9-21.5c-7.6-12.1-13.6-25-17.8-38.6l14.6-4.5c3.8 12.3 9.2 24 16.1 35l-12.9 8.1z m-22.8-59.2c-1.8-10.2-2.7-20.8-2.7-31.5 0-3.7 0.1-7.3 0.3-10.7l15.2 0.8c-0.2 3.2-0.3 6.5-0.3 9.9 0 9.8 0.8 19.5 2.5 28.8l-15 2.7z m14.9-60.8l-15-2.4c3.9-24.4 11-40.4 11.3-41l13.9 6.2c-0.1 0.1-6.6 14.9-10.2 37.2z" fill="" p-id="985"></path></svg>